<?xml version="1.0" standalone="no"?><!DOCTYPE svg PUBLIC "-//W3C//DTD SVG 1.1//EN" "http://www.w3.org/Graphics/SVG/1.1/DTD/svg11.dtd"><svg t="1527921166508" class="icon" style="" viewBox="0 0 1024 1024" version="1.1" xmlns="http://www.w3.org/2000/svg" p-id="15933" xmlns:xlink="http://www.w3.org/1999/xlink" width="200" height="200"><defs><style type="text/css"></style></defs><path d="M869.577978 422.604994H601.393983V154.422022c0-49.372477-40.021505-89.393983-89.393983-89.393983-49.372477 0-89.393983 40.021505-89.393983 89.393983v268.182972H154.422022c-49.372477 0-89.395006 40.021505-89.395006 89.395006 0 49.372477 40.021505 89.393983 89.395006 89.393983h268.182972V869.577978c0 49.372477 40.021505 89.395006 89.393983 89.395006 49.372477 0 89.393983-40.021505 89.393983-89.395006V601.393983h268.182972c49.372477 0 89.393983-40.021505 89.393982-89.393983 0.002047-49.372477-40.019459-89.395006-89.391936-89.395006z" fill="#CCCCCC" p-id="15934"></path></svg>