<?xml version="1.0" standalone="no"?><!DOCTYPE svg PUBLIC "-//W3C//DTD SVG 1.1//EN" "http://www.w3.org/Graphics/SVG/1.1/DTD/svg11.dtd"><svg t="1527921122317" class="icon" style="" viewBox="0 0 1024 1024" version="1.1" xmlns="http://www.w3.org/2000/svg" p-id="14423" xmlns:xlink="http://www.w3.org/1999/xlink" width="200" height="200"><defs><style type="text/css"></style></defs><path d="M791.272727 1024 791.272727 930.909091 884.363636 930.909091 884.363636 837.818182 791.272727 837.818182 791.272727 744.727273 698.181818 744.727273 698.181818 837.818182 605.090909 837.818182 605.090909 930.909091 698.181818 930.909091 698.181818 1024Z" p-id="14424"></path><path d="M162.210909 0C162.210909 0 139.636364 0 139.636364 22.760727L139.636364 1001.192727C139.636364 1024 162.210909 1024 162.210909 1024l459.357091 0C582.935273 989.882182 558.545455 939.985455 558.545455 884.363636L279.272727 884.363636l0-46.545455 285.137455 0c9.402182-36.584727 29.696-68.840727 57.157818-93.090909L279.272727 744.727273l0-46.545455 465.454545 0c55.621818 0 105.518545 24.389818 139.636364 63.022545L884.363636 232.727273l-186.181818 0c0 0-46.545455 0-46.545455-46.545455L651.636364 0 162.210909 0zM279.272727 139.636364l279.272727 0 0 46.545455L279.272727 186.181818 279.272727 139.636364zM279.272727 279.272727l279.272727 0 0 46.545455L279.272727 325.818182 279.272727 279.272727zM744.727273 605.090909 279.272727 605.090909l0-46.545455 465.454545 0L744.727273 605.090909zM744.727273 418.909091l0 46.545455L279.272727 465.454545 279.272727 418.909091 744.727273 418.909091z" p-id="14425"></path><path d="M698.181818 186.181818 865.885091 186.181818 698.181818 17.082182Z" p-id="14426"></path></svg>